<?xml version="1.0" encoding="UTF-8"?>
<svg xmlns="http://www.w3.org/2000/svg" viewBox="0 0 512 512">
<g id="halfmoon">
<path d="M231.08+108.684C223.127+59.7897+182.573+24.3266+135.236+20.8807C130.448+20.5323+127.501+26.0591+130.546+29.7701C142.686+44.5641+149.907+63.5497+149.708+84.227C149.258+130.805+110.762+168.48+64.1842+167.971C55.7256+167.879+47.565+166.544+39.8762+164.142C35.2725+162.703+31.2255+167.476+33.3508+171.806C53.1729+212.183+97.674+236.676+144.372+229.08C201.562+219.778+240.383+165.875+231.08+108.684Z" fill="#fee97d"/>
<path d="M44.3531+189.493C53.1413+191.657+62.3616+192.856+71.8717+192.951C132.688+193.56+182.952+148.521+183.54+92.841C183.8+68.1223+157.228+25.8375+157.022+24.8286C149.996+22.7657+142.701+21.4242+135.235+20.8807C130.448+20.5323+127.501+26.0591+130.546+29.7701C142.686+44.5641+149.907+63.5497+149.707+84.227C149.258+130.805+110.761+168.48+64.1838+167.971C55.7248+167.879+47.5646+166.544+39.8758+164.142C35.2721+162.703+31.2251+167.476+33.3504+171.806C36.4453+178.109+40.1414+184.026+44.3531+189.493Z" fill="#fee45a"/>
<path d="M112.78+109.014C109.267+106.736+106.38+103.891+104.159+100.442C103.124+98.834+100.775+98.807+99.666+100.364C97.416+103.525+94.531+106.314+91.084+108.772C89.497+109.904+89.564+112.315+91.216+113.35C94.654+115.503+97.534+118.29+99.779+121.8C100.814+123.418+103.186+123.424+104.249+121.825C106.422+118.557+109.341+115.86+112.803+113.578C114.457+112.49+114.441+110.092+112.78+109.014Z" fill="#fee97d"/>
<path d="M60.3699+58.1536C56.8574+55.8755+53.97+53.0303+51.7491+49.581C50.7142+47.9736+48.3651+47.9459+47.2564+49.5033C45.0064+52.6644+42.1215+55.4528+38.6744+57.9111C37.0874+59.0429+37.154+61.4543+38.8063+62.4888C42.244+64.6419+45.1246+67.4294+47.3695+70.9397C48.404+72.5574+50.7765+72.5633+51.8396+70.9644C54.0127+67.6966+56.9309+64.9988+60.3934+62.7176C62.0473+61.6285+62.0311+59.2308+60.3699+58.1536Z" fill="#fee97d"/>
<path d="M98.859+67.9618C97.09+67.9618+95.657+66.5281+95.657+64.7597L95.657+52.7737C95.657+51.0053+97.09+49.5717+98.859+49.5717C100.628+49.5717+102.061+51.0053+102.061+52.7737L102.061+64.7593C102.061+66.5281+100.628+67.9618+98.859+67.9618Z" fill="#fef48b"/>
<path d="M104.852+61.9688L92.866+61.9688C91.097+61.9688+89.664+60.5351+89.664+58.7667C89.664+56.9983+91.097+55.5646+92.866+55.5646L104.852+55.5646C106.621+55.5646+108.054+56.9983+108.054+58.7667C108.054+60.5351+106.621+61.9688+104.852+61.9688Z" fill="#fef48b"/>
<path d="M51.4404+127.207C49.6716+127.207+48.2383+125.773+48.2383+124.005L48.2383+112.019C48.2383+110.251+49.6716+108.817+51.4404+108.817C53.2092+108.817+54.6425+110.251+54.6425+112.019L54.6425+124.005C54.6425+125.773+53.2088+127.207+51.4404+127.207Z" fill="#fef48b"/>
<path d="M57.4329+121.214L45.4474+121.214C43.6786+121.214+42.2453+119.78+42.2453+118.012C42.2453+116.243+43.6786+114.81+45.4474+114.81L57.4329+114.81C59.2018+114.81+60.635+116.243+60.635+118.012C60.635+119.78+59.2013+121.214+57.4329+121.214Z" fill="#fef48b"/>
</g>
<g id="XMLID_78_">
<path d="M416.7+177.4C404.7+177.4+393.2+179.9+382.7+184.2C359.1+138+311.5+106+256+106C200.5+106+152.9+138+129.3+184.2C118.8+179.9+107.4+177.4+95.3+177.4C46+177.4+6+217.4+6+266.7C6+316+46+356+95.3+356C114.4+356+132.1+349.9+146.6+339.6C172.8+371.2+211.8+391.7+256+391.7C300.2+391.7+339.2+371.2+365.4+339.6C379.9+349.8+397.6+356+416.7+356C466+356+506+316+506+266.7C506+217.4+466+177.4+416.7+177.4Z" fill="#bec6d2"/>
<path d="M267.8+254.6C171.6+244.9+81.5+258.3+10.3+288.3C19.2+328.3+54.8+358.2+97.4+358.2C116.5+358.2+134.2+352.1+148.7+341.8C174.9+373.4+213.9+393.9+258.1+393.9C302.3+393.9+341.3+373.4+367.5+341.8C382+352+399.7+358.2+418.8+358.2C447.4+358.2+472.8+344.7+489.2+323.7C428.6+288.3+352.3+263.1+267.8+254.6Z" opacity="0.05" fill="#a7a9ac"/>
<path d="M416.7+191.7C404.7+191.7+393.2+194.2+382.7+198.5C359+152.3+311.5+120.3+256+120.3C200.5+120.3+152.9+152.3+129.3+198.5C118.8+194.2+107.4+191.7+95.3+191.7C46+191.7+6+231.7+6+281C6+330.3+46+370.3+95.3+370.3C114.4+370.3+132.1+364.2+146.6+353.9C172.8+385.5+211.8+406+256+406C300.2+406+339.2+385.5+365.4+353.9C379.9+364.1+397.6+370.3+416.7+370.3C466+370.3+506+330.3+506+281C506+231.7+466+191.7+416.7+191.7Z" fill="#d3dee2"/>
<path d="M156.2+247.5C163.7+247.5+170.7+249+177.2+251.7C191.8+223.1+221.2+203.4+255.5+203.4C289.8+203.4+319.2+223.2+333.8+251.7C340.3+249+347.4+247.5+354.8+247.5C382.7+247.5+405.7+268.2+409.4+295.1C409.7+292.6+410+290.1+410+287.6C410+257.1+385.3+232.4+354.8+232.4C347.4+232.4+340.3+233.9+333.8+236.6C319.2+208+289.8+188.3+255.5+188.3C221.2+188.3+191.8+208.1+177.2+236.6C170.7+233.9+163.7+232.4+156.2+232.4C125.7+232.4+101+257.1+101+287.6C101+290.2+101.2+292.7+101.6+295.1C105.2+268.2+128.2+247.5+156.2+247.5Z" fill="#bec6d2"/>
</g>
</svg>
