<?xml version="1.0" encoding="UTF-8"?>
<svg xmlns="http://www.w3.org/2000/svg" viewBox="0 0 64 64">
<g id="XMLID_78_">
<g id="halfmoon">
<path d="M29.2086+20.2668C28.3178+14.7901+23.7752+10.8177+18.4729+10.4318C17.9366+10.3927+17.6065+11.0118+17.9476+11.4275C19.3074+13.0846+20.1162+15.2112+20.0939+17.5273C20.0435+22.7447+15.7315+26.9647+10.5142+26.9077C9.56673+26.8974+8.65264+26.7479+7.7914+26.4788C7.27572+26.3177+6.82241+26.8523+7.06047+27.3373C9.28079+31.86+14.2655+34.6036+19.4962+33.7527C25.9023+32.7108+30.2507+26.673+29.2086+20.2668Z" fill="#fee97d"/>
<path d="M8.29286+29.3185C9.27725+29.5609+10.31+29.6952+11.3753+29.7058C18.1875+29.774+23.8177+24.7291+23.8836+18.4922C23.9127+15.7234+20.9363+10.987+20.9132+10.874C20.1262+10.6429+19.3091+10.4926+18.4728+10.4318C17.9366+10.3927+17.6065+11.0118+17.9476+11.4275C19.3074+13.0846+20.1162+15.2112+20.0938+17.5273C20.0435+22.7447+15.7314+26.9647+10.5142+26.9077C9.56664+26.8974+8.65259+26.7479+7.79135+26.4788C7.27568+26.3177+6.82236+26.8523+7.06042+27.3373C7.40709+28.0433+7.8211+28.7061+8.29286+29.3185Z" fill="#fee45a"/>
<path d="M15.9575+20.3038C15.564+20.0486+15.2407+19.73+14.9919+19.3436C14.876+19.1635+14.6128+19.1605+14.4886+19.3349C14.2366+19.689+13.9134+20.0014+13.5273+20.2767C13.3496+20.4035+13.3571+20.6736+13.5421+20.7895C13.9272+21.0307+14.2498+21.3428+14.5013+21.736C14.6172+21.9172+14.8829+21.9179+15.002+21.7388C15.2454+21.3727+15.5723+21.0706+15.9601+20.815C16.1454+20.6932+16.1436+20.4246+15.9575+20.3038Z" fill="#fee97d"/>
<path d="M10.0869+14.6068C9.6935+14.3516+9.37008+14.0329+9.12131+13.6466C9.00539+13.4665+8.74226+13.4634+8.61807+13.6379C8.36604+13.9919+8.0429+14.3043+7.65678+14.5796C7.47901+14.7064+7.48647+14.9765+7.67155+15.0924C8.05662+15.3336+8.37928+15.6458+8.63074+16.039C8.74662+16.2202+9.01237+16.2209+9.13145+16.0418C9.37486+15.6757+9.70174+15.3735+10.0896+15.118C10.2748+14.996+10.273+14.7275+10.0869+14.6068Z" fill="#fee97d"/>
<path d="M14.3982+15.7054C14.2001+15.7054+14.0396+15.5448+14.0396+15.3468L14.0396+14.0042C14.0396+13.8061+14.2001+13.6455+14.3982+13.6455C14.5964+13.6455+14.7569+13.8061+14.7569+14.0042L14.7569+15.3467C14.7569+15.5448+14.5964+15.7054+14.3982+15.7054Z" fill="#fef48b"/>
<path d="M15.0695+15.0341L13.7269+15.0341C13.5288+15.0341+13.3683+14.8736+13.3683+14.6755C13.3683+14.4774+13.5288+14.3168+13.7269+14.3168L15.0695+14.3168C15.2677+14.3168+15.4282+14.4774+15.4282+14.6755C15.4282+14.8736+15.2677+15.0341+15.0695+15.0341Z" fill="#fef48b"/>
<path d="M9.08673+22.3417C8.8886+22.3417+8.72806+22.181+8.72806+21.983L8.72806+20.6404C8.72806+20.4424+8.8886+20.2817+9.08673+20.2817C9.28486+20.2817+9.44541+20.4424+9.44541+20.6404L9.44541+21.983C9.44541+22.181+9.28482+22.3417+9.08673+22.3417Z" fill="#fef48b"/>
<path d="M9.75797+21.6704L8.41544+21.6704C8.21731+21.6704+8.05676+21.5097+8.05676+21.3117C8.05676+21.1135+8.21731+20.953+8.41544+20.953L9.75797+20.953C9.95611+20.953+10.1166+21.1135+10.1166+21.3117C10.1166+21.5097+9.95605+21.6704+9.75797+21.6704Z" fill="#fef48b"/>
</g>
<path d="M50.0004+27.9639C48.6563+27.9639+47.3681+28.2439+46.192+28.7256C43.5485+23.5506+38.2167+19.9662+32+19.9662C25.7833+19.9662+20.4515+23.5506+17.808+28.7256C16.6319+28.2439+15.3549+27.9639+13.9996+27.9639C8.47734+27.9639+3.99683+32.4444+3.99683+37.9666C3.99683+43.4889+8.47734+47.9694+13.9996+47.9694C16.139+47.9694+18.1216+47.2861+19.7458+46.1324C22.6805+49.672+27.049+51.9682+32+51.9682C36.951+51.9682+41.3195+49.672+44.2542+46.1324C45.8784+47.2749+47.861+47.9694+50.0004+47.9694C55.5227+47.9694+60.0032+43.4889+60.0032+37.9666C60.0032+32.4444+55.5227+27.9639+50.0004+27.9639Z" fill="#bec6d2"/>
<path d="M33.3217+36.6113C22.5461+35.5248+12.4538+37.0257+4.47849+40.3861C5.4754+44.8666+9.46305+48.2158+14.2348+48.2158C16.3742+48.2158+18.3569+47.5325+19.981+46.3788C22.9158+49.9184+27.2843+52.2146+32.2352+52.2146C37.1862+52.2146+41.5547+49.9184+44.4894+46.3788C46.1136+47.5213+48.0962+48.2158+50.2357+48.2158C53.4392+48.2158+56.2843+46.7036+58.1214+44.3514C51.3334+40.3861+42.7868+37.5634+33.3217+36.6113Z" opacity="0.05" fill="#a7a9ac"/>
<path d="M50.0004+29.5657C48.6563+29.5657+47.3681+29.8457+46.192+30.3274C43.5373+25.1524+38.2167+21.568+32+21.568C25.7833+21.568+20.4515+25.1524+17.808+30.3274C16.6319+29.8457+15.3549+29.5657+13.9996+29.5657C8.47734+29.5657+3.99683+34.0462+3.99683+39.5684C3.99683+45.0906+8.47734+49.5711+13.9996+49.5711C16.139+49.5711+18.1216+48.8879+19.7458+47.7341C22.6805+51.2737+27.049+53.57+32+53.57C36.951+53.57+41.3195+51.2737+44.2542+47.7341C45.8784+48.8767+47.861+49.5711+50.0004+49.5711C55.5227+49.5711+60.0032+45.0906+60.0032+39.5684C60.0032+34.0462+55.5227+29.5657+50.0004+29.5657Z" fill="#d3dee2"/>
<path d="M20.8211+35.816C21.6612+35.816+22.4453+35.984+23.1734+36.2864C24.8088+33.0829+28.102+30.8762+31.944+30.8762C35.786+30.8762+39.0792+33.0941+40.7146+36.2864C41.4427+35.984+42.238+35.816+43.0669+35.816C46.192+35.816+48.7683+38.1347+49.1827+41.1478C49.2163+40.8678+49.25+40.5877+49.25+40.3077C49.25+36.8913+46.4832+34.1246+43.0669+34.1246C42.238+34.1246+41.4427+34.2926+40.7146+34.5951C39.0792+31.3915+35.786+29.1848+31.944+29.1848C28.102+29.1848+24.8088+31.4027+23.1734+34.5951C22.4453+34.2926+21.6612+34.1246+20.8211+34.1246C17.4047+34.1246+14.638+36.8913+14.638+40.3077C14.638+40.5989+14.6604+40.879+14.7052+41.1478C15.1085+38.1347+17.6848+35.816+20.8211+35.816Z" fill="#bec6d2"/>
</g>
</svg>
