<?xml version="1.0" encoding="utf-8"?>
<!-- Generator: Adobe Illustrator 19.0.0, SVG Export Plug-In . SVG Version: 6.00 Build 0)  -->
<svg version="1.1" id="Layer_1" xmlns="http://www.w3.org/2000/svg" xmlns:xlink="http://www.w3.org/1999/xlink" x="0px" y="0px"
	 viewBox="0 0 512 512" style="enable-background:new 0 0 512 512;" xml:space="preserve">
<style type="text/css">
	.st0{fill:url(#XMLID_2_);}
	.st1{opacity:0.5;fill:#D58128;enable-background:new    ;}
	.st2{opacity:0.5;fill:#FDD900;enable-background:new    ;}
	.st3{opacity:0.19;fill:#D58128;enable-background:new    ;}
	.st4{fill:#BEC6D2;}
	.st5{opacity:5.000000e-002;fill:#A7A9AC;enable-background:new    ;}
	.st6{fill:#D3DEE2;}
	.st7{fill:#00AEEF;}
	.st8{fill:url(#SVGID_1_);}
</style>
<g id="halfmoon">
<path d="M231.08+108.684C223.127+59.7897+182.573+24.3266+135.236+20.8807C130.448+20.5323+127.501+26.0591+130.546+29.7701C142.686+44.5641+149.907+63.5497+149.708+84.227C149.258+130.805+110.762+168.48+64.1842+167.971C55.7256+167.879+47.565+166.544+39.8762+164.142C35.2725+162.703+31.2255+167.476+33.3508+171.806C53.1729+212.183+97.674+236.676+144.372+229.08C201.562+219.778+240.383+165.875+231.08+108.684Z" fill="#fee97d"/>
<path d="M44.3531+189.493C53.1413+191.657+62.3616+192.856+71.8717+192.951C132.688+193.56+182.952+148.521+183.54+92.841C183.8+68.1223+157.228+25.8375+157.022+24.8286C149.996+22.7657+142.701+21.4242+135.235+20.8807C130.448+20.5323+127.501+26.0591+130.546+29.7701C142.686+44.5641+149.907+63.5497+149.707+84.227C149.258+130.805+110.761+168.48+64.1838+167.971C55.7248+167.879+47.5646+166.544+39.8758+164.142C35.2721+162.703+31.2251+167.476+33.3504+171.806C36.4453+178.109+40.1414+184.026+44.3531+189.493Z" fill="#fee45a"/>
<path d="M112.78+109.014C109.267+106.736+106.38+103.891+104.159+100.442C103.124+98.834+100.775+98.807+99.666+100.364C97.416+103.525+94.531+106.314+91.084+108.772C89.497+109.904+89.564+112.315+91.216+113.35C94.654+115.503+97.534+118.29+99.779+121.8C100.814+123.418+103.186+123.424+104.249+121.825C106.422+118.557+109.341+115.86+112.803+113.578C114.457+112.49+114.441+110.092+112.78+109.014Z" fill="#fee97d"/>
<path d="M60.3699+58.1536C56.8574+55.8755+53.97+53.0303+51.7491+49.581C50.7142+47.9736+48.3651+47.9459+47.2564+49.5033C45.0064+52.6644+42.1215+55.4528+38.6744+57.9111C37.0874+59.0429+37.154+61.4543+38.8063+62.4888C42.244+64.6419+45.1246+67.4294+47.3695+70.9397C48.404+72.5574+50.7765+72.5633+51.8396+70.9644C54.0127+67.6966+56.9309+64.9988+60.3934+62.7176C62.0473+61.6285+62.0311+59.2308+60.3699+58.1536Z" fill="#fee97d"/>
<path d="M98.859+67.9618C97.09+67.9618+95.657+66.5281+95.657+64.7597L95.657+52.7737C95.657+51.0053+97.09+49.5717+98.859+49.5717C100.628+49.5717+102.061+51.0053+102.061+52.7737L102.061+64.7593C102.061+66.5281+100.628+67.9618+98.859+67.9618Z" fill="#fef48b"/>
<path d="M104.852+61.9688L92.866+61.9688C91.097+61.9688+89.664+60.5351+89.664+58.7667C89.664+56.9983+91.097+55.5646+92.866+55.5646L104.852+55.5646C106.621+55.5646+108.054+56.9983+108.054+58.7667C108.054+60.5351+106.621+61.9688+104.852+61.9688Z" fill="#fef48b"/>
<path d="M51.4404+127.207C49.6716+127.207+48.2383+125.773+48.2383+124.005L48.2383+112.019C48.2383+110.251+49.6716+108.817+51.4404+108.817C53.2092+108.817+54.6425+110.251+54.6425+112.019L54.6425+124.005C54.6425+125.773+53.2088+127.207+51.4404+127.207Z" fill="#fef48b"/>
<path d="M57.4329+121.214L45.4474+121.214C43.6786+121.214+42.2453+119.78+42.2453+118.012C42.2453+116.243+43.6786+114.81+45.4474+114.81L57.4329+114.81C59.2018+114.81+60.635+116.243+60.635+118.012C60.635+119.78+59.2013+121.214+57.4329+121.214Z" fill="#fef48b"/>
</g>
<g id="XMLID_78_">
	<path id="XMLID_637_" class="st4" d="M416.7,177.4c-12,0-23.5,2.5-34,6.8C359.1,138,311.5,106,256,106s-103.1,32-126.7,78.2
		c-10.5-4.3-21.9-6.8-34-6.8C46,177.4,6,217.4,6,266.7S46,356,95.3,356c19.1,0,36.8-6.1,51.3-16.4c26.2,31.6,65.2,52.1,109.4,52.1
		s83.2-20.5,109.4-52.1c14.5,10.2,32.2,16.4,51.3,16.4c49.3,0,89.3-40,89.3-89.3S466,177.4,416.7,177.4z"/>
	<path id="XMLID_636_" class="st5" d="M267.8,254.6c-96.2-9.7-186.3,3.7-257.5,33.7c8.9,40,44.5,69.9,87.1,69.9
		c19.1,0,36.8-6.1,51.3-16.4c26.2,31.6,65.2,52.1,109.4,52.1s83.2-20.5,109.4-52.1c14.5,10.2,32.2,16.4,51.3,16.4
		c28.6,0,54-13.5,70.4-34.5C428.6,288.3,352.3,263.1,267.8,254.6z"/>
	<path id="XMLID_635_" class="st6" d="M416.7,191.7c-12,0-23.5,2.5-34,6.8c-23.7-46.2-71.2-78.2-126.7-78.2s-103.1,32-126.7,78.2
		c-10.5-4.3-21.9-6.8-34-6.8C46,191.7,6,231.7,6,281s40,89.3,89.3,89.3c19.1,0,36.8-6.1,51.3-16.4C172.8,385.5,211.8,406,256,406
		s83.2-20.5,109.4-52.1c14.5,10.2,32.2,16.4,51.3,16.4c49.3,0,89.3-40,89.3-89.3S466,191.7,416.7,191.7z"/>
	<path id="XMLID_541_" class="st4" d="M156.2,247.5c7.5,0,14.5,1.5,21,4.2c14.6-28.6,44-48.3,78.3-48.3s63.7,19.8,78.3,48.3
		c6.5-2.7,13.6-4.2,21-4.2c27.9,0,50.9,20.7,54.6,47.6c0.3-2.5,0.6-5,0.6-7.5c0-30.5-24.7-55.2-55.2-55.2c-7.4,0-14.5,1.5-21,4.2
		c-14.6-28.6-44-48.3-78.3-48.3s-63.7,19.8-78.3,48.3c-6.5-2.7-13.5-4.2-21-4.2c-30.5,0-55.2,24.7-55.2,55.2c0,2.6,0.2,5.1,0.6,7.5
		C105.2,268.2,128.2,247.5,156.2,247.5z"/>
</g>
<path id="XMLID_45_" class="st7" d="M360.2,458.8c5.4,13.7,20.9,20.4,34.6,15s20.4-20.9,15-34.6s-44.4-39.8-44.4-39.8
	S354.8,445.1,360.2,458.8z"/>
<path id="XMLID_44_" class="st7" d="M119,458.8c5.4,13.7,20.9,20.4,34.6,15c13.7-5.4,20.4-20.9,15-34.6s-44.4-39.8-44.4-39.8
	S113.6,445.1,119,458.8z"/>
<path id="XMLID_41_" class="st7" d="M239.6,478.8c5.4,13.7,20.9,20.4,34.6,15s20.4-20.9,15-34.6s-44.4-39.8-44.4-39.8
	S234.2,465.1,239.6,478.8z"/>
<linearGradient id="SVGID_1_" gradientUnits="userSpaceOnUse" x1="65.1435" y1="35.1068" x2="65.1435" y2="92.1702">
	<stop  offset="0" style="stop-color:#FEDA00"/>
	<stop  offset="0.7755" style="stop-color:#E2A025"/>
</linearGradient>
</svg>