<?xml version="1.0" encoding="utf-8"?>
<!-- Generator: Adobe Illustrator 19.0.0, SVG Export Plug-In . SVG Version: 6.00 Build 0)  -->
<svg version="1.1" id="Layer_1" xmlns="http://www.w3.org/2000/svg" xmlns:xlink="http://www.w3.org/1999/xlink" x="0px" y="0px"
	 viewBox="0 0 512 512" style="enable-background:new 0 0 512 512;" xml:space="preserve">
<style type="text/css">
	.st0{fill:url(#XMLID_3_);}
	.st1{opacity:0.4;fill:#D58128;enable-background:new    ;}
	.st2{opacity:0.5;fill:#D58128;enable-background:new    ;}
	.st3{opacity:0.3;fill:#D58128;enable-background:new    ;}
	.st4{opacity:0.5;fill:#FFCD05;enable-background:new    ;}
	.st5{fill:#BEC6D2;}
	.st6{opacity:5.000000e-002;fill:#A7A9AC;enable-background:new    ;}
	.st7{fill:#D3DEE2;}
	.st8{fill:#00ADEE;}
	.st9{fill:url(#XMLID_4_);}
	.st10{fill:url(#XMLID_5_);}
</style>
<g id="smallfullmoon">
<path d="M39.1951+110.41C39.1951+68.3437+73.2966+34.2422+115.363+34.2422C157.429+34.2422+191.531+68.3437+191.531+110.41C191.531+152.476+157.429+186.578+115.363+186.578C73.2966+186.578+39.1951+152.476+39.1951+110.41Z" fill="#fef0ae"/>
<path d="M84.8429+110.41C84.8429+76.2953+107.276+47.42+138.191+37.7221C130.985+35.4617+123.315+34.2422+115.363+34.2422C73.2963+34.2422+39.1951+68.3434+39.1951+110.41C39.1951+152.477+73.2963+186.578+115.363+186.578C123.315+186.578+130.988+185.358+138.194+183.097C107.278+173.4+84.8429+144.525+84.8429+110.41Z" fill="#fee97d"/>
<path d="M191.515+111.684L191.519+111.684C191.34+122.707+188.817+133.162+184.43+142.57L184.424+142.567C178.544+140.186+174.397+134.426+174.397+127.691C174.397+118.831+181.581+111.647+190.442+111.647C190.802+111.647+191.159+111.662+191.515+111.684Z" fill="#fee97d"/>
<path d="M115.363+174.638C121.999+174.638+127.577+179.182+129.146+185.332C124.676+186.15+120.07+186.578+115.363+186.578C110.656+186.578+106.05+186.15+101.58+185.332C103.149+179.182+108.727+174.638+115.363+174.638Z" fill="#fedf30"/>
<path d="M133.746+140.659C138.874+140.659+143.034+144.819+143.034+149.948C143.034+155.08+138.874+159.236+133.746+159.236C128.614+159.236+124.454+155.08+124.454+149.948C124.454+144.819+128.614+140.659+133.746+140.659Z" fill="#fee97d"/>
<path d="M144.019+125.535C144.019+121.907+146.959+118.966+150.587+118.966C154.215+118.966+157.156+121.907+157.156+125.535C157.156+129.162+154.215+132.103+150.587+132.103C146.959+132.103+144.019+129.162+144.019+125.535Z" fill="#fee97d"/>
<path d="M118.766+90.3782C118.766+80.6165+126.679+72.703+136.441+72.703C146.203+72.703+154.116+80.6165+154.116+90.3782C154.116+100.14+146.203+108.053+136.441+108.053C126.679+108.053+118.766+100.14+118.766+90.3782Z" fill="#fee97d"/>
<path d="M74.6685+125.393C74.6685+119.774+79.2237+115.219+84.8429+115.219C90.462+115.219+95.0173+119.774+95.0173+125.393C95.0173+131.012+90.462+135.568+84.8429+135.568C79.2237+135.568+74.6685+131.012+74.6685+125.393Z" fill="#fee45a"/>
<path d="M84.8429+135.568C86.2535+135.568+87.5974+135.28+88.8188+134.761C86.7301+128.566+85.4164+122.015+84.993+115.223C84.9429+115.222+84.8933+115.219+84.8429+115.219C79.2219+115.219+74.6685+119.775+74.6685+125.393C74.6685+131.011+79.2219+135.568+84.8429+135.568Z" fill="#fedf30"/>
<path d="M65.9586+93.181C69.389+93.181+72.1703+95.9623+72.1703+99.3896C72.1703+102.82+69.389+105.601+65.9586+105.601C62.5281+105.601+59.75+102.82+59.75+99.3896C59.75+95.9623+62.5281+93.181+65.9586+93.181Z" fill="#fedf30"/>
<path d="M92.519+37.7311C93.2082+40.2754+93.5805+42.9521+93.5805+45.7149C93.5805+62.5225+79.9541+76.1488+63.1435+76.1488C58.0978+76.1488+53.3383+74.9182+49.1479+72.7461L49.1449+72.7461C58.5747+56.2+74.0286+43.5336+92.519+37.728L92.519+37.7311Z" fill="#fedf30"/>
</g>
<g id="XMLID_78_">
	<path id="XMLID_637_" class="st5" d="M416.7,177.4c-12,0-23.5,2.5-34,6.8C359.1,138,311.5,106,256,106s-103.1,32-126.7,78.2
		c-10.5-4.3-21.9-6.8-34-6.8C46,177.4,6,217.4,6,266.7S46,356,95.3,356c19.1,0,36.8-6.1,51.3-16.4c26.2,31.6,65.2,52.1,109.4,52.1
		s83.2-20.5,109.4-52.1c14.5,10.2,32.2,16.4,51.3,16.4c49.3,0,89.3-40,89.3-89.3S466,177.4,416.7,177.4z"/>
	<path id="XMLID_636_" class="st6" d="M267.8,254.6c-96.2-9.7-186.3,3.7-257.5,33.7c8.9,40,44.5,69.9,87.1,69.9
		c19.1,0,36.8-6.1,51.3-16.4c26.2,31.6,65.2,52.1,109.4,52.1s83.2-20.5,109.4-52.1c14.5,10.2,32.2,16.4,51.3,16.4
		c28.6,0,54-13.5,70.4-34.5C428.6,288.3,352.3,263.1,267.8,254.6z"/>
	<path id="XMLID_635_" class="st7" d="M416.7,191.7c-12,0-23.5,2.5-34,6.8c-23.7-46.2-71.2-78.2-126.7-78.2s-103.1,32-126.7,78.2
		c-10.5-4.3-21.9-6.8-34-6.8C46,191.7,6,231.7,6,281s40,89.3,89.3,89.3c19.1,0,36.8-6.1,51.3-16.4C172.8,385.5,211.8,406,256,406
		s83.2-20.5,109.4-52.1c14.5,10.2,32.2,16.4,51.3,16.4c49.3,0,89.3-40,89.3-89.3S466,191.7,416.7,191.7z"/>
	<path id="XMLID_541_" class="st5" d="M156.2,247.5c7.5,0,14.5,1.5,21,4.2c14.6-28.6,44-48.3,78.3-48.3s63.7,19.8,78.3,48.3
		c6.5-2.7,13.6-4.2,21-4.2c27.9,0,50.9,20.7,54.6,47.6c0.3-2.5,0.6-5,0.6-7.5c0-30.5-24.7-55.2-55.2-55.2c-7.4,0-14.5,1.5-21,4.2
		c-14.6-28.6-44-48.3-78.3-48.3s-63.7,19.8-78.3,48.3c-6.5-2.7-13.5-4.2-21-4.2c-30.5,0-55.2,24.7-55.2,55.2c0,2.6,0.2,5.1,0.6,7.5
		C105.2,268.2,128.2,247.5,156.2,247.5z"/>
</g>
<path id="XMLID_257_" class="st8" d="M289.4,471.2c4.1,10.5,16,15.6,26.5,11.5s15.6-16,11.5-26.5s-34-30.5-34-30.5
	S285.3,460.7,289.4,471.2z"/>
<radialGradient id="XMLID_4_" cx="375.5" cy="91.6" r="32" gradientTransform="matrix(1 0 0 -1 0 512)" gradientUnits="userSpaceOnUse">
	<stop  offset="0" style="stop-color:#CEECFB"/>
	<stop  offset="1" style="stop-color:#E1F3FC"/>
</radialGradient>
<path id="XMLID_215_" class="st9" d="M403,415.9h-16.7l11.8-11.8c1.7-1.7,1.7-4.6,0-6.3c-1.7-1.7-4.6-1.7-6.3,0L380,409.6v-16.7
	c0-2.5-2-4.5-4.5-4.5s-4.5,2-4.5,4.5v16.7l-11.8-11.8c-1.7-1.7-4.6-1.7-6.3,0c-1.7,1.7-1.7,4.6,0,6.3l11.8,11.8H348
	c-2.5,0-4.5,2-4.5,4.5s2,4.5,4.5,4.5h16.7l-11.8,11.8c-1.7,1.7-1.7,4.6,0,6.3c1.7,1.7,4.6,1.7,6.3,0l11.8-11.8v16.7
	c0,2.5,2,4.5,4.5,4.5s4.5-2,4.5-4.5v-16.7l11.8,11.8c1.7,1.7,4.6,1.7,6.3,0c1.7-1.7,1.7-4.6,0-6.3l-11.8-11.8H403
	c2.5,0,4.5-2,4.5-4.5S405.5,415.9,403,415.9z"/>
<radialGradient id="XMLID_5_" cx="129.5" cy="87.171" r="31.9645" gradientTransform="matrix(1 0 0 -1 0 512)" gradientUnits="userSpaceOnUse">
	<stop  offset="0" style="stop-color:#CEECFB"/>
	<stop  offset="1" style="stop-color:#E1F3FC"/>
</radialGradient>
<path id="XMLID_213_" class="st10" d="M157,420.4h-16.7l11.8-11.8c1.7-1.7,1.7-4.6,0-6.3c-1.7-1.7-4.6-1.7-6.3,0L134,414.1v-16.7
	c0-2.5-2-4.5-4.5-4.5s-4.5,2-4.5,4.5v16.7l-11.8-11.8c-1.7-1.7-4.6-1.7-6.3,0c-1.7,1.7-1.7,4.6,0,6.3l11.8,11.8H102
	c-2.5,0-4.5,2-4.5,4.5s2,4.5,4.5,4.5h16.7l-11.8,11.8c-1.7,1.7-1.7,4.6,0,6.3c1.7,1.7,4.6,1.7,6.3,0l11.8-11.8v16.7
	c0,2.5,2,4.5,4.5,4.5s4.5-2,4.5-4.5v-16.7l11.8,11.8c1.7,1.7,4.6,1.7,6.3,0s1.7-4.6,0-6.3l-11.8-11.8H157c2.5,0,4.5-2,4.5-4.5
	S159.4,420.4,157,420.4z"/>
<path id="XMLID_1_" class="st8" d="M189.4,471.2c4.1,10.5,16,15.6,26.5,11.5s15.6-16,11.5-26.5s-34-30.5-34-30.5
	S185.3,460.7,189.4,471.2z"/>
</svg>
