<?xml version="1.0" encoding="UTF-8" standalone="no"?> <!-- Created with Vectornator for iOS (http://vectornator.io/) --><!DOCTYPE svg PUBLIC "-//W3C//DTD SVG 1.1//EN" "http://www.w3.org/Graphics/SVG/1.1/DTD/svg11.dtd">
<svg style="fill-rule:nonzero;clip-rule:evenodd;stroke-linecap:round;stroke-linejoin:round;" xmlns:vectornator="http://vectornator.io" xmlns:xlink="http://www.w3.org/1999/xlink" xmlns="http://www.w3.org/2000/svg" xml:space="preserve" version="1.1" viewBox="0 0 512 512">
<g id="smallfullmoon">
<path d="M39.1951+110.41C39.1951+68.3437+73.2966+34.2422+115.363+34.2422C157.429+34.2422+191.531+68.3437+191.531+110.41C191.531+152.476+157.429+186.578+115.363+186.578C73.2966+186.578+39.1951+152.476+39.1951+110.41Z" fill="#fef0ae"/>
<path d="M84.8429+110.41C84.8429+76.2953+107.276+47.42+138.191+37.7221C130.985+35.4617+123.315+34.2422+115.363+34.2422C73.2963+34.2422+39.1951+68.3434+39.1951+110.41C39.1951+152.477+73.2963+186.578+115.363+186.578C123.315+186.578+130.988+185.358+138.194+183.097C107.278+173.4+84.8429+144.525+84.8429+110.41Z" fill="#fee97d"/>
<path d="M191.515+111.684L191.519+111.684C191.34+122.707+188.817+133.162+184.43+142.57L184.424+142.567C178.544+140.186+174.397+134.426+174.397+127.691C174.397+118.831+181.581+111.647+190.442+111.647C190.802+111.647+191.159+111.662+191.515+111.684Z" fill="#fee97d"/>
<path d="M115.363+174.638C121.999+174.638+127.577+179.182+129.146+185.332C124.676+186.15+120.07+186.578+115.363+186.578C110.656+186.578+106.05+186.15+101.58+185.332C103.149+179.182+108.727+174.638+115.363+174.638Z" fill="#fedf30"/>
<path d="M133.746+140.659C138.874+140.659+143.034+144.819+143.034+149.948C143.034+155.08+138.874+159.236+133.746+159.236C128.614+159.236+124.454+155.08+124.454+149.948C124.454+144.819+128.614+140.659+133.746+140.659Z" fill="#fee97d"/>
<path d="M144.019+125.535C144.019+121.907+146.959+118.966+150.587+118.966C154.215+118.966+157.156+121.907+157.156+125.535C157.156+129.162+154.215+132.103+150.587+132.103C146.959+132.103+144.019+129.162+144.019+125.535Z" fill="#fee97d"/>
<path d="M118.766+90.3782C118.766+80.6165+126.679+72.703+136.441+72.703C146.203+72.703+154.116+80.6165+154.116+90.3782C154.116+100.14+146.203+108.053+136.441+108.053C126.679+108.053+118.766+100.14+118.766+90.3782Z" fill="#fee97d"/>
<path d="M74.6685+125.393C74.6685+119.774+79.2237+115.219+84.8429+115.219C90.462+115.219+95.0173+119.774+95.0173+125.393C95.0173+131.012+90.462+135.568+84.8429+135.568C79.2237+135.568+74.6685+131.012+74.6685+125.393Z" fill="#fee45a"/>
<path d="M84.8429+135.568C86.2535+135.568+87.5974+135.28+88.8188+134.761C86.7301+128.566+85.4164+122.015+84.993+115.223C84.9429+115.222+84.8933+115.219+84.8429+115.219C79.2219+115.219+74.6685+119.775+74.6685+125.393C74.6685+131.011+79.2219+135.568+84.8429+135.568Z" fill="#fedf30"/>
<path d="M65.9586+93.181C69.389+93.181+72.1703+95.9623+72.1703+99.3896C72.1703+102.82+69.389+105.601+65.9586+105.601C62.5281+105.601+59.75+102.82+59.75+99.3896C59.75+95.9623+62.5281+93.181+65.9586+93.181Z" fill="#fedf30"/>
<path d="M92.519+37.7311C93.2082+40.2754+93.5805+42.9521+93.5805+45.7149C93.5805+62.5225+79.9541+76.1488+63.1435+76.1488C58.0978+76.1488+53.3383+74.9182+49.1479+72.7461L49.1449+72.7461C58.5747+56.2+74.0286+43.5336+92.519+37.728L92.519+37.7311Z" fill="#fedf30"/>
</g>
</svg>
