<?xml version="1.0" encoding="UTF-8" standalone="no"?> <!-- Created with Vectornator for iOS (http://vectornator.io/) --><!DOCTYPE svg PUBLIC "-//W3C//DTD SVG 1.1//EN" "http://www.w3.org/Graphics/SVG/1.1/DTD/svg11.dtd">
<svg style="fill-rule:nonzero;clip-rule:evenodd;stroke-linecap:round;stroke-linejoin:round;" xmlns:vectornator="http://vectornator.io" xmlns:xlink="http://www.w3.org/1999/xlink" xmlns="http://www.w3.org/2000/svg" xml:space="preserve" version="1.1" viewBox="0 0 490.914 490.914">
<metadata>
<vectornator:setting key="DimensionsVisible" value="0"/>
<vectornator:setting key="PencilOnly" value="0"/>
<vectornator:setting key="SnapToPoints" value="0"/>
<vectornator:setting key="OutlineMode" value="0"/>
<vectornator:setting key="CMYKEnabledKey" value="0"/>
<vectornator:setting key="RulersVisible" value="1"/>
<vectornator:setting key="SnapToEdges" value="0"/>
<vectornator:setting key="GuidesVisible" value="0"/>
<vectornator:setting key="DisplayWhiteBackground" value="0"/>
<vectornator:setting key="doHistoryDisabled" value="0"/>
<vectornator:setting key="SnapToGuides" value="1"/>
<vectornator:setting key="TimeLapseWatermarkDisabled" value="0"/>
<vectornator:setting key="Units" value="Points"/>
<vectornator:setting key="DynamicGuides" value="1"/>
<vectornator:setting key="IsolateActiveLayer" value="0"/>
<vectornator:setting key="SnapToGrid" value="0"/>
</metadata>
<defs/>
<g id="Untitled" vectornator:layerName="Untitled">
<g opacity="1">
<path d="M244.08+123.684C236.127+74.7897+195.573+39.3266+148.236+35.8807C143.448+35.5323+140.501+41.0591+143.546+44.7701C155.686+59.5641+162.907+78.5497+162.708+99.227C162.258+145.805+123.762+183.48+77.1842+182.971C68.7256+182.879+60.565+181.544+52.8762+179.142C48.2725+177.703+44.2255+182.476+46.3508+186.806C66.1729+227.183+110.674+251.676+157.372+244.08C214.562+234.778+253.383+180.875+244.08+123.684Z" opacity="1" fill="#fee97d"/>
<path d="M57.3531+204.493C66.1413+206.657+75.3616+207.856+84.8717+207.951C145.688+208.56+195.952+163.521+196.54+107.841C196.8+83.1223+170.228+40.8375+170.022+39.8286C162.996+37.7657+155.701+36.4242+148.235+35.8807C143.448+35.5323+140.501+41.0591+143.546+44.7701C155.686+59.5641+162.907+78.5497+162.707+99.227C162.258+145.805+123.761+183.48+77.1838+182.971C68.7248+182.879+60.5646+181.544+52.8758+179.142C48.2721+177.703+44.2251+182.476+46.3504+186.806C49.4453+193.109+53.1414+199.026+57.3531+204.493Z" opacity="1" fill="#fee45a"/>
<path d="M125.78+124.014C122.267+121.736+119.38+118.891+117.159+115.442C116.124+113.834+113.775+113.807+112.666+115.364C110.416+118.525+107.531+121.314+104.084+123.772C102.497+124.904+102.564+127.315+104.216+128.35C107.654+130.503+110.534+133.29+112.779+136.8C113.814+138.418+116.186+138.424+117.249+136.825C119.422+133.557+122.341+130.86+125.803+128.578C127.457+127.49+127.441+125.092+125.78+124.014Z" opacity="1" fill="#fee97d"/>
<path d="M73.3699+73.1536C69.8574+70.8755+66.97+68.0303+64.7491+64.581C63.7142+62.9736+61.3651+62.9459+60.2564+64.5033C58.0064+67.6644+55.1215+70.4528+51.6744+72.9111C50.0874+74.0429+50.154+76.4543+51.8063+77.4888C55.244+79.6419+58.1246+82.4294+60.3695+85.9397C61.404+87.5574+63.7765+87.5633+64.8396+85.9644C67.0127+82.6966+69.9309+79.9988+73.3934+77.7176C75.0473+76.6285+75.0311+74.2308+73.3699+73.1536Z" opacity="1" fill="#fee97d"/>
<path d="M111.859+82.9618C110.09+82.9618+108.657+81.5281+108.657+79.7597L108.657+67.7737C108.657+66.0053+110.09+64.5717+111.859+64.5717C113.628+64.5717+115.061+66.0053+115.061+67.7737L115.061+79.7593C115.061+81.5281+113.628+82.9618+111.859+82.9618Z" opacity="1" fill="#fef48b"/>
<path d="M117.852+76.9688L105.866+76.9688C104.097+76.9688+102.664+75.5351+102.664+73.7667C102.664+71.9983+104.097+70.5646+105.866+70.5646L117.852+70.5646C119.621+70.5646+121.054+71.9983+121.054+73.7667C121.054+75.5351+119.621+76.9688+117.852+76.9688Z" opacity="1" fill="#fef48b"/>
<path d="M64.4404+142.207C62.6716+142.207+61.2383+140.773+61.2383+139.005L61.2383+127.019C61.2383+125.251+62.6716+123.817+64.4404+123.817C66.2092+123.817+67.6425+125.251+67.6425+127.019L67.6425+139.005C67.6425+140.773+66.2088+142.207+64.4404+142.207Z" opacity="1" fill="#fef48b"/>
<path d="M70.4329+136.214L58.4474+136.214C56.6786+136.214+55.2453+134.78+55.2453+133.012C55.2453+131.243+56.6786+129.81+58.4474+129.81L70.4329+129.81C72.2018+129.81+73.635+131.243+73.635+133.012C73.635+134.78+72.2013+136.214+70.4329+136.214Z" opacity="1" fill="#fef48b"/>
</g>
</g>
</svg>
